<svg width="295" height="28" viewBox="0 0 295 28" fill="none" xmlns="http://www.w3.org/2000/svg">
<path d="M14.2435 25.15L5.28949 7.945V27H0.331488V1.1H7.21349L14.3175 15.012L21.4215 1.1H28.3035V27H23.2345V7.982L14.2435 25.15ZM55.4924 15.789C55.4924 17.5403 55.2211 19.1437 54.6784 20.599C54.1358 22.0297 53.3588 23.2507 52.3474 24.262C51.3608 25.2487 50.1521 26.0133 48.7214 26.556C47.3154 27.0987 45.7491 27.37 44.0224 27.37C42.2711 27.37 40.6801 27.0987 39.2494 26.556C37.8434 26.0133 36.6471 25.2487 35.6604 24.262C34.6738 23.2507 33.9091 22.0297 33.3664 20.599C32.8238 19.1683 32.5524 17.565 32.5524 15.789V1.1H37.9174V15.789C37.9174 17.787 38.4724 19.3903 39.5824 20.599C40.7171 21.8077 42.2094 22.412 44.0594 22.412C45.9094 22.412 47.3771 21.8077 48.4624 20.599C49.5724 19.3903 50.1274 17.787 50.1274 15.789V1.1H55.4924V15.789ZM57.55 22.893L60.621 19.045C62.1256 20.3523 63.5686 21.3143 64.95 21.931C66.356 22.523 67.836 22.819 69.39 22.819C70.9933 22.819 72.276 22.523 73.238 21.931C74.2 21.339 74.681 20.5497 74.681 19.563C74.681 18.675 74.348 17.9843 73.682 17.491C73.0406 16.9977 71.9553 16.6277 70.426 16.381L65.283 15.493C63.063 15.123 61.3733 14.346 60.214 13.162C59.0793 11.978 58.512 10.4487 58.512 8.574C58.512 6.15667 59.4246 4.245 61.25 2.839C63.1 1.433 65.5913 0.729999 68.724 0.729999C70.5986 0.729999 72.4856 1.05067 74.385 1.692C76.309 2.33333 77.9863 3.22133 79.417 4.356L76.531 8.352C75.1496 7.29133 73.793 6.51433 72.461 6.021C71.129 5.503 69.76 5.244 68.354 5.244C66.9233 5.244 65.7763 5.51533 64.913 6.058C64.0496 6.576 63.618 7.279 63.618 8.167C63.618 8.95633 63.9016 9.573 64.469 10.017C65.0363 10.461 65.986 10.7817 67.318 10.979L72.202 11.793C74.7673 12.2123 76.6913 13.0387 77.974 14.272C79.2813 15.4807 79.935 17.084 79.935 19.082C79.935 21.598 78.936 23.6083 76.938 25.113C74.9646 26.6177 72.3253 27.37 69.02 27.37C66.948 27.37 64.9006 26.9753 62.878 26.186C60.88 25.3967 59.104 24.299 57.55 22.893ZM83.1479 27V1.1H103.054V5.762H88.5129V11.682H98.0959V16.196H88.5129V22.338H103.202V27H83.1479ZM129.529 15.789C129.529 17.5403 129.257 19.1437 128.715 20.599C128.172 22.0297 127.395 23.2507 126.384 24.262C125.397 25.2487 124.188 26.0133 122.758 26.556C121.352 27.0987 119.785 27.37 118.059 27.37C116.307 27.37 114.716 27.0987 113.286 26.556C111.88 26.0133 110.683 25.2487 109.697 24.262C108.71 23.2507 107.945 22.0297 107.403 20.599C106.86 19.1683 106.589 17.565 106.589 15.789V1.1H111.954V15.789C111.954 17.787 112.509 19.3903 113.619 20.599C114.753 21.8077 116.246 22.412 118.096 22.412C119.946 22.412 121.413 21.8077 122.499 20.599C123.609 19.3903 124.164 17.787 124.164 15.789V1.1H129.529V15.789ZM147.718 25.15L138.764 7.945V27H133.806V1.1H140.688L147.792 15.012L154.896 1.1H161.778V27H156.709V7.982L147.718 25.15ZM171.398 27L182.054 1.1H188.27L198.778 27H192.969L190.342 20.192H179.649L176.985 27H171.398ZM181.314 15.9H188.714L185.051 6.354L181.314 15.9ZM200.977 27V1.1H210.93C212.854 1.1 214.655 1.433 216.332 2.099C218.009 2.765 219.452 3.67767 220.661 4.837C221.894 5.99633 222.856 7.37767 223.547 8.981C224.262 10.5843 224.62 12.2987 224.62 14.124C224.62 15.9247 224.262 17.6143 223.547 19.193C222.856 20.7717 221.894 22.1407 220.661 23.3C219.452 24.4347 218.009 25.335 216.332 26.001C214.655 26.667 212.854 27 210.93 27H200.977ZM210.893 5.873H206.342V22.227H210.893C212.028 22.227 213.088 22.0173 214.075 21.598C215.086 21.1787 215.962 20.6113 216.702 19.896C217.442 19.156 218.022 18.2927 218.441 17.306C218.86 16.3193 219.07 15.2587 219.07 14.124C219.07 12.9647 218.86 11.8793 218.441 10.868C218.022 9.85667 217.442 8.981 216.702 8.241C215.962 7.501 215.086 6.92133 214.075 6.502C213.088 6.08267 212.028 5.873 210.893 5.873ZM242.205 25.15L233.251 7.945V27H228.293V1.1H235.175L242.279 15.012L249.383 1.1H256.265V27H251.196V7.982L242.205 25.15ZM271.002 1.1H276.108L288.984 17.861V1.1H294.016V27H289.28L276.071 9.684V27H271.002V1.1Z" fill="black"/>
<path d="M260.921 27V1.1H266.286V27H260.921Z" fill="#A89704"/>
</svg>
